<svg xmlns="http://www.w3.org/2000/svg" viewBox="0 0 200 200" width="100%" height="100%">
  <defs>
    <radialGradient id="py-bg" cx="50%" cy="50%" r="70%">
      <stop offset="0%" stop-color="#0d1824"/>
      <stop offset="100%" stop-color="#04090e"/>
    </radialGradient>
    <filter id="py-glow" x="-20%" y="-20%" width="140%" height="140%">
      <feGaussianBlur stdDeviation="7" result="b"/>
      <feMerge>
        <feMergeNode in="b"/>
        <feMergeNode in="SourceGraphic"/>
      </feMerge>
    </filter>
  </defs>
  <rect width="200" height="200" rx="44" fill="url(#py-bg)" stroke="#3776ab" stroke-width="3"/>
  <rect x="8" y="8" width="184" height="184" rx="38" fill="none" stroke="rgba(255,212,59,0.3)" stroke-width="1.5"/>
  <!-- Python Entwined Dual Serpents -->
  <g transform="translate(100, 100) scale(0.95)" filter="url(#py-glow)">
    <!-- Blue upper snake -->
    <path d="M-5,-45 C-28,-45 -45,-38 -45,-15 L-45,-2 L-10,-2 L-10,8 L-45,8 C-45,30 -28,45 -5,45 L8,45 L8,28 C8,12 20,0 35,0 L45,0 L45,-15 C45,-38 28,-45 5,-45 Z M-22,-32 C-16,-32 -12,-28 -12,-22 C-12,-16 -16,-12 -22,-12 C-28,-12 -32,-16 -32,-22 C-32,-28 -28,-32 -22,-32 Z" fill="#3776ab"/>
    <!-- Yellow lower snake -->
    <path d="M5,45 C28,45 45,38 45,15 L45,2 L10,2 L10,-8 L45,-8 C45,-30 28,-45 5,-45 L-8,-45 L-8,-28 C-8,-12 -20,0 -35,0 L-45,0 L-45,15 C-45,38 -28,45 -5,45 Z M22,32 C16,32 12,28 12,22 C12,16 16,12 22,12 C28,12 32,16 32,22 C32,28 28,32 22,32 Z" fill="#ffd43b"/>
  </g>
</svg>
